<svg width="95" height="21" viewBox="0 0 95 21" fill="none" xmlns="http://www.w3.org/2000/svg">
<path d="M2.96697 4.41913C1.73394 4.56515 1 5.75992 1 7.00157V14.5051C1 16.8831 3.09902 18.6304 5.47701 18.6304V18.6304C7.23411 18.6304 10 19 10 19V16.7796C10 16.7796 7.65568 16.4131 6.25 16.4131V16.4131C4.48808 16.4131 2.88718 15.1436 2.90029 13.3817L2.96697 4.41913V4.41913Z" fill="black"/>
<path d="M14.431 18.6304C16.8611 18.6304 19 16.8437 19 14.4136V6.82269C19 5.68158 18.3424 4.591 17.2092 4.45681V4.45681L17.149 13.2932C17.1365 15.1255 15.4599 16.4131 13.6276 16.4131V16.4131C12.2219 16.4131 10 16.7796 10 16.7796V19C10 19 12.6739 18.6304 14.431 18.6304V18.6304Z" fill="black"/>
<path d="M10 19C10 19 7.23411 18.6304 5.47701 18.6304V18.6304C3.09902 18.6304 1 16.8831 1 14.5051V7.00157C1 5.75992 1.73394 4.56515 2.96697 4.41913V4.41913M10 19C10 19 12.6739 18.6304 14.431 18.6304V18.6304C16.8611 18.6304 19 16.8437 19 14.4136V6.82269C19 5.68158 18.3424 4.591 17.2092 4.45681V4.45681M10 19V16.7796M10 16.7796C10 16.7796 7.65568 16.4131 6.25 16.4131V16.4131C4.48808 16.4131 2.88718 15.1436 2.90029 13.3817L2.96697 4.41913M10 16.7796C10 16.7796 12.2219 16.4131 13.6276 16.4131V16.4131C15.4599 16.4131 17.1365 15.1255 17.149 13.2932L17.2092 4.45681M10 16.7796V2.36956M2.96697 4.41913V4.41913C2.96697 3.23466 3.81899 2.2137 4.99716 2.09173C5.50615 2.03903 6.03465 2 6.48348 2C7.86455 2 10 2.36956 10 2.36956M17.2092 4.45681V4.45681C17.2092 3.25175 16.3397 2.2147 15.1408 2.09302C14.6151 2.03967 14.0683 2 13.6046 2C12.1893 2 10 2.36956 10 2.36956" stroke="black" stroke-linecap="round" stroke-linejoin="round"/>
<path d="M22.736 16.08C22.6187 16.08 22.528 16.0533 22.464 16C22.4 15.9573 22.368 15.9093 22.368 15.856C22.368 15.7707 22.4053 15.7067 22.48 15.664C22.5547 15.6107 22.6293 15.5733 22.704 15.552C23.088 15.456 23.3707 15.3387 23.552 15.2C23.7333 15.0507 23.824 14.8107 23.824 14.48V7.12C23.824 6.87467 23.792 6.688 23.728 6.56C23.6747 6.432 23.5733 6.336 23.424 6.272C23.2853 6.19733 23.0773 6.13333 22.8 6.08C22.5227 6.02667 22.384 5.91467 22.384 5.744C22.384 5.68 22.4213 5.632 22.496 5.6C22.5707 5.55733 22.656 5.536 22.752 5.536C23.0187 5.536 23.2693 5.54133 23.504 5.552C23.7493 5.56267 23.984 5.57333 24.208 5.584C24.432 5.59467 24.656 5.6 24.88 5.6C25.1253 5.6 25.3707 5.59467 25.616 5.584C25.872 5.57333 26.128 5.56267 26.384 5.552C26.6507 5.54133 26.9067 5.536 27.152 5.536C27.2587 5.536 27.344 5.55733 27.408 5.6C27.472 5.632 27.504 5.68533 27.504 5.76C27.504 5.84533 27.4667 5.91467 27.392 5.968C27.328 6.01067 27.232 6.048 27.104 6.08C26.688 6.18667 26.3787 6.304 26.176 6.432C25.984 6.54933 25.888 6.76267 25.888 7.072V14.384C25.888 14.6933 25.9573 14.9227 26.096 15.072C26.2347 15.2107 26.496 15.28 26.88 15.28H28.624C28.8693 15.28 29.0933 15.2373 29.296 15.152C29.4987 15.0667 29.664 14.96 29.792 14.832C29.984 14.6613 30.144 14.48 30.272 14.288C30.4 14.096 30.5227 13.872 30.64 13.616C30.7147 13.456 30.784 13.3333 30.848 13.248C30.912 13.1627 30.976 13.12 31.04 13.12C31.1147 13.12 31.168 13.1573 31.2 13.232C31.232 13.296 31.248 13.3653 31.248 13.44C31.248 13.4507 31.2427 13.4827 31.232 13.536C31.2213 13.5893 31.216 13.632 31.216 13.664C31.1307 13.9733 31.056 14.24 30.992 14.464C30.9387 14.688 30.8907 14.9067 30.848 15.12C30.816 15.3227 30.784 15.5467 30.752 15.792C30.7413 15.8667 30.72 15.936 30.688 16C30.656 16.0533 30.592 16.08 30.496 16.08C30.176 16.08 29.792 16.0747 29.344 16.064C28.896 16.0533 28.4213 16.0427 27.92 16.032C27.4187 16.032 26.912 16.0267 26.4 16.016C25.8987 16.0053 25.424 16 24.976 16C24.7413 16 24.4693 16.0053 24.16 16.016C23.8613 16.0267 23.5787 16.0373 23.312 16.048C23.0453 16.0693 22.8533 16.08 22.736 16.08ZM35.2432 16.224C34.6566 16.224 34.1392 16.0747 33.6912 15.776C33.2432 15.4773 32.8912 15.0667 32.6352 14.544C32.3792 14.0107 32.2512 13.408 32.2512 12.736C32.2512 12.0853 32.4006 11.4933 32.6992 10.96C33.0086 10.416 33.4192 9.984 33.9312 9.664C34.4432 9.344 35.0032 9.184 35.6112 9.184C36.0592 9.184 36.4592 9.28 36.8112 9.472C37.1632 9.65333 37.4406 9.90933 37.6432 10.24C37.8566 10.56 37.9633 10.9227 37.9633 11.328C37.9633 11.712 37.7979 11.904 37.4672 11.904H34.2192C34.0699 11.904 33.9579 11.9467 33.8832 12.032C33.8192 12.1067 33.7872 12.2507 33.7872 12.464C33.7872 12.912 33.8832 13.3173 34.0752 13.68C34.2779 14.0427 34.5446 14.3307 34.8752 14.544C35.2059 14.7573 35.5846 14.864 36.0113 14.864C36.3206 14.864 36.6032 14.8053 36.8593 14.688C37.1259 14.56 37.3766 14.3893 37.6112 14.176C37.6539 14.144 37.6913 14.1173 37.7232 14.096C37.7552 14.064 37.7872 14.048 37.8193 14.048C37.9259 14.048 37.9792 14.112 37.9792 14.24C37.9792 14.3893 37.9152 14.5707 37.7873 14.784C37.6593 15.0293 37.4726 15.264 37.2273 15.488C36.9926 15.712 36.7046 15.888 36.3632 16.016C36.0219 16.1547 35.6486 16.224 35.2432 16.224ZM34.2192 11.28H35.3552C35.6326 11.28 35.8406 11.2747 35.9792 11.264C36.1179 11.2533 36.2513 11.232 36.3793 11.2C36.4326 11.1893 36.4699 11.1467 36.4913 11.072C36.5126 10.9867 36.5233 10.8907 36.5233 10.784C36.5233 10.496 36.4113 10.256 36.1873 10.064C35.9739 9.86133 35.7072 9.76 35.3872 9.76C35.1632 9.76 34.9446 9.82933 34.7312 9.968C34.5179 10.096 34.3419 10.2613 34.2032 10.464C34.0646 10.6667 34.0006 10.8747 34.0112 11.088C34.0112 11.216 34.0806 11.28 34.2192 11.28ZM40.7025 16.224C40.4465 16.224 40.2012 16.1547 39.9665 16.016C39.7425 15.8773 39.5612 15.696 39.4225 15.472C39.2838 15.248 39.2145 15.0187 39.2145 14.784C39.2145 14.4213 39.3212 14.128 39.5345 13.904C39.7478 13.6693 40.0678 13.4613 40.4945 13.28L41.9825 12.64C42.1958 12.5547 42.3238 12.4747 42.3665 12.4C42.4198 12.3253 42.4465 12.1867 42.4465 11.984L42.4785 11.04C42.4892 10.7413 42.4252 10.5013 42.2865 10.32C42.1585 10.1387 41.9612 10.048 41.6945 10.048C41.5558 10.048 41.4118 10.0747 41.2625 10.128C41.1132 10.1813 40.9958 10.2507 40.9105 10.336C40.8678 10.3787 40.8358 10.4373 40.8145 10.512C40.8038 10.576 40.7985 10.64 40.7985 10.704C40.7985 10.7573 40.7985 10.8267 40.7985 10.912C40.8092 10.9867 40.8145 11.056 40.8145 11.12C40.8145 11.184 40.7345 11.264 40.5745 11.36C40.4145 11.456 40.2332 11.5413 40.0305 11.616C39.8278 11.6907 39.6572 11.728 39.5185 11.728C39.4438 11.728 39.3852 11.7013 39.3425 11.648C39.2998 11.5947 39.2785 11.5307 39.2785 11.456C39.2785 11.2853 39.3318 11.1147 39.4385 10.944C39.5558 10.7627 39.7372 10.5707 39.9825 10.368C40.2492 10.144 40.5425 9.94667 40.8625 9.776C41.1825 9.59467 41.4918 9.45067 41.7905 9.344C42.0998 9.23733 42.3665 9.184 42.5905 9.184C43.1025 9.184 43.5132 9.35467 43.8225 9.696C44.1318 10.0267 44.2812 10.464 44.2705 11.008L44.1905 14.432C44.1798 14.6667 44.2225 14.864 44.3185 15.024C44.4252 15.184 44.5532 15.264 44.7025 15.264C44.9265 15.264 45.1078 15.2 45.2465 15.072C45.2892 15.0293 45.3265 15.008 45.3585 15.008C45.4118 15.008 45.4545 15.0293 45.4865 15.072C45.5292 15.104 45.5505 15.1467 45.5505 15.2C45.5505 15.3173 45.4652 15.4613 45.2945 15.632C45.1025 15.824 44.8945 15.968 44.6705 16.064C44.4572 16.1707 44.2438 16.224 44.0305 16.224C43.4652 16.224 43.0065 15.9307 42.6545 15.344H42.6065C42.2545 15.6533 41.9292 15.8773 41.6305 16.016C41.3425 16.1547 41.0332 16.224 40.7025 16.224ZM41.5825 15.264C41.7318 15.264 41.8598 15.2427 41.9665 15.2C42.0732 15.1467 42.1638 15.0773 42.2385 14.992C42.2812 14.9387 42.3132 14.8747 42.3345 14.8C42.3665 14.7253 42.3878 14.6187 42.3985 14.48L42.4305 13.456C42.4412 13.3493 42.4305 13.28 42.3985 13.248C42.3665 13.2053 42.3292 13.184 42.2865 13.184C42.2652 13.184 42.2332 13.1893 42.1905 13.2C42.1478 13.2 42.0998 13.216 42.0465 13.248C41.6518 13.408 41.3692 13.5787 41.1985 13.76C41.0278 13.9413 40.9425 14.176 40.9425 14.464C40.9425 14.752 41.0118 14.96 41.1505 15.088C41.2892 15.2053 41.4332 15.264 41.5825 15.264ZM46.5234 16.048C46.438 16.048 46.3634 16.032 46.2994 16C46.2354 15.9573 46.2034 15.904 46.2034 15.84C46.2034 15.7547 46.2354 15.6907 46.2994 15.648C46.374 15.6053 46.4647 15.568 46.5714 15.536C46.7954 15.472 46.95 15.3973 47.0354 15.312C47.1314 15.216 47.1794 15.088 47.1794 14.928V11.328C47.1794 11.0827 47.142 10.88 47.0674 10.72C47.0034 10.5493 46.8594 10.4373 46.6354 10.384C46.5927 10.3627 46.55 10.336 46.5074 10.304C46.4647 10.2613 46.4434 10.2027 46.4434 10.128C46.4434 9.98933 46.502 9.904 46.6194 9.872C46.9394 9.78667 47.286 9.67467 47.6594 9.536C48.0327 9.38667 48.3474 9.24267 48.6034 9.104C48.6567 9.072 48.7154 9.04 48.7794 9.008C48.8434 8.976 48.8914 8.96 48.9234 8.96C49.0087 8.96 49.0514 9.01333 49.0514 9.12C49.0514 9.16267 49.046 9.25867 49.0354 9.408C49.0354 9.55733 49.03 9.72267 49.0194 9.904C49.0194 10.0747 49.014 10.2293 49.0034 10.368C49.0034 10.432 49.0194 10.464 49.0514 10.464C49.222 10.24 49.414 10.032 49.6274 9.84C49.8407 9.648 50.0647 9.488 50.2994 9.36C50.5447 9.232 50.79 9.168 51.0354 9.168C51.3447 9.168 51.574 9.232 51.7234 9.36C51.8834 9.488 51.9634 9.648 51.9634 9.84C51.9634 9.98933 51.9207 10.1493 51.8354 10.32C51.7607 10.4907 51.6594 10.64 51.5314 10.768C51.414 10.8853 51.2807 10.944 51.1314 10.944C51.046 10.944 50.9554 10.928 50.8594 10.896C50.7634 10.8533 50.6674 10.8053 50.5714 10.752C50.4754 10.7093 50.374 10.6667 50.2674 10.624C50.1714 10.5813 50.0807 10.56 49.9954 10.56C49.7287 10.56 49.4887 10.6613 49.2754 10.864C49.062 11.056 48.9554 11.44 48.9554 12.016V14.832C48.9554 15.024 49.0247 15.1733 49.1634 15.28C49.302 15.376 49.5154 15.4667 49.8034 15.552C49.9207 15.584 50.006 15.6213 50.0594 15.664C50.1234 15.696 50.1554 15.7547 50.1554 15.84C50.1554 15.9787 50.0594 16.048 49.8674 16.048C49.5474 16.048 49.2434 16.032 48.9554 16C48.678 15.9787 48.4007 15.968 48.1234 15.968C47.942 15.968 47.766 15.9733 47.5954 15.984C47.4354 15.9947 47.27 16.0053 47.0994 16.016C46.9287 16.0373 46.7367 16.048 46.5234 16.048ZM53.0145 16.048C52.9292 16.048 52.8545 16.032 52.7905 16C52.7265 15.9573 52.6945 15.904 52.6945 15.84C52.6945 15.7547 52.7265 15.6907 52.7905 15.648C52.8652 15.6053 52.9558 15.568 53.0625 15.536C53.2225 15.4933 53.3665 15.4347 53.4945 15.36C53.6332 15.2853 53.7025 15.1413 53.7025 14.928V11.344C53.7025 11.0987 53.6652 10.8907 53.5905 10.72C53.5265 10.5387 53.3825 10.4213 53.1585 10.368C53.1158 10.3467 53.0785 10.32 53.0465 10.288C53.0145 10.2453 52.9985 10.1813 52.9985 10.096C52.9985 9.95733 53.0465 9.87733 53.1425 9.856C53.5158 9.77067 53.8838 9.65867 54.2465 9.52C54.6198 9.37067 54.9452 9.216 55.2225 9.056C55.2652 9.03467 55.3078 9.008 55.3505 8.976C55.3932 8.944 55.4358 8.928 55.4785 8.928C55.5318 8.928 55.5638 8.94933 55.5745 8.992C55.5958 9.024 55.6065 9.06133 55.6065 9.104C55.6065 9.17867 55.5905 9.31733 55.5585 9.52C55.5372 9.72267 55.5265 9.89867 55.5265 10.048C55.5265 10.0907 55.5265 10.1387 55.5265 10.192C55.5372 10.2347 55.5478 10.2613 55.5585 10.272C55.9212 9.93067 56.2945 9.664 56.6785 9.472C57.0732 9.28 57.5158 9.184 58.0065 9.184C58.5505 9.184 59.0038 9.392 59.3665 9.808C59.7398 10.224 59.9265 10.7733 59.9265 11.456V14.944C59.9265 15.1573 59.9905 15.296 60.1185 15.36C60.2465 15.424 60.3905 15.4827 60.5505 15.536C60.6358 15.568 60.7158 15.6107 60.7905 15.664C60.8652 15.7067 60.9025 15.7707 60.9025 15.856C60.9025 15.92 60.8652 15.968 60.7905 16C60.7265 16.032 60.6625 16.048 60.5985 16.048C60.3852 16.048 60.1985 16.0373 60.0385 16.016C59.8785 16.0053 59.7185 15.9947 59.5585 15.984C59.4092 15.9733 59.2385 15.968 59.0465 15.968C58.8652 15.968 58.6945 15.9733 58.5345 15.984C58.3745 15.9947 58.2092 16.0053 58.0385 16.016C57.8785 16.0373 57.6918 16.048 57.4785 16.048C57.4252 16.048 57.3665 16.032 57.3025 16C57.2385 15.968 57.2065 15.92 57.2065 15.856C57.2065 15.7707 57.2385 15.7067 57.3025 15.664C57.3665 15.6107 57.4412 15.568 57.5265 15.536C57.6865 15.4827 57.8252 15.424 57.9425 15.36C58.0705 15.296 58.1345 15.1573 58.1345 14.944V11.696C58.1345 11.2693 58.0278 10.9333 57.8145 10.688C57.6118 10.4427 57.3345 10.32 56.9825 10.32C56.6945 10.32 56.4438 10.3627 56.2305 10.448C56.0172 10.5333 55.8092 10.656 55.6065 10.816C55.5638 10.848 55.5318 10.896 55.5105 10.96C55.4892 11.0133 55.4785 11.072 55.4785 11.136V14.944C55.4785 15.1573 55.5372 15.3013 55.6545 15.376C55.7825 15.44 55.9265 15.4933 56.0865 15.536C56.3105 15.6107 56.4225 15.712 56.4225 15.84C56.4225 15.904 56.3958 15.9573 56.3425 16C56.2892 16.032 56.2198 16.048 56.1345 16.048C55.9212 16.048 55.7345 16.0373 55.5745 16.016C55.4145 16.0053 55.2598 15.9947 55.1105 15.984C54.9612 15.9733 54.7905 15.968 54.5985 15.968C54.4172 15.968 54.2465 15.9733 54.0865 15.984C53.9265 15.9947 53.7612 16.0053 53.5905 16.016C53.4198 16.0373 53.2278 16.048 53.0145 16.048ZM64.812 16.336C64.748 16.336 64.6787 16.2613 64.604 16.112C64.54 15.9627 64.4813 15.8133 64.428 15.664C64.3427 15.4827 64.2573 15.28 64.172 15.056C64.0867 14.8213 64.0013 14.608 63.916 14.416C63.66 13.7867 63.3933 13.168 63.116 12.56C62.8387 11.952 62.5613 11.328 62.284 10.688C62.188 10.4747 62.0707 10.288 61.932 10.128C61.804 9.95733 61.6493 9.84533 61.468 9.792C61.372 9.74933 61.2973 9.712 61.244 9.68C61.2013 9.63733 61.18 9.568 61.18 9.472C61.18 9.39733 61.2227 9.35467 61.308 9.344C61.404 9.32267 61.484 9.312 61.548 9.312C61.7827 9.312 61.964 9.31733 62.092 9.328C62.2307 9.33867 62.3587 9.35467 62.476 9.376C62.604 9.38667 62.7747 9.392 62.988 9.392C63.2013 9.392 63.3827 9.38667 63.532 9.376C63.6813 9.35467 63.836 9.33867 63.996 9.328C64.156 9.31733 64.3533 9.312 64.588 9.312C64.652 9.312 64.7267 9.32267 64.812 9.344C64.8973 9.36533 64.94 9.41867 64.94 9.504C64.94 9.58933 64.9027 9.65333 64.828 9.696C64.7533 9.728 64.6733 9.76 64.588 9.792C64.4707 9.83467 64.38 9.91467 64.316 10.032C64.2627 10.1493 64.236 10.2933 64.236 10.464C64.236 10.5493 64.236 10.6347 64.236 10.72C64.2467 10.7947 64.268 10.8747 64.3 10.96L65.42 13.824C65.4307 13.8347 65.436 13.84 65.436 13.84C65.4467 13.84 65.4573 13.8347 65.468 13.824L66.508 11.104C66.5507 11.008 66.5773 10.912 66.588 10.816C66.6093 10.72 66.62 10.6293 66.62 10.544C66.62 10.352 66.5827 10.1973 66.508 10.08C66.4333 9.952 66.3107 9.86133 66.14 9.808C66.0333 9.76533 65.9427 9.728 65.868 9.696C65.804 9.65333 65.772 9.58933 65.772 9.504C65.772 9.42933 65.8147 9.38133 65.9 9.36C65.9853 9.328 66.0653 9.312 66.14 9.312C66.364 9.32267 66.556 9.33867 66.716 9.36C66.876 9.37067 67.0573 9.376 67.26 9.376C67.452 9.376 67.612 9.37067 67.74 9.36C67.8787 9.33867 68.0653 9.32267 68.3 9.312C68.3853 9.312 68.4653 9.32267 68.54 9.344C68.6253 9.36533 68.668 9.41333 68.668 9.488C68.668 9.62667 68.5613 9.73333 68.348 9.808C68.1667 9.872 67.9853 9.99467 67.804 10.176C67.6333 10.3573 67.4947 10.576 67.388 10.832L66.14 13.92C66.1187 13.9947 66.0813 14.096 66.028 14.224C65.9747 14.3413 65.916 14.4693 65.852 14.608C65.7987 14.7467 65.7453 14.8747 65.692 14.992C65.6493 15.0987 65.6173 15.1787 65.596 15.232C65.5747 15.2853 65.532 15.3867 65.468 15.536C65.404 15.6747 65.3347 15.824 65.26 15.984C65.196 16.1333 65.1373 16.2507 65.084 16.336H64.812ZM70.5762 16.224C70.3202 16.224 70.0749 16.1547 69.8402 16.016C69.6162 15.8773 69.4349 15.696 69.2962 15.472C69.1576 15.248 69.0882 15.0187 69.0882 14.784C69.0882 14.4213 69.1949 14.128 69.4082 13.904C69.6216 13.6693 69.9416 13.4613 70.3682 13.28L71.8562 12.64C72.0696 12.5547 72.1976 12.4747 72.2402 12.4C72.2936 12.3253 72.3202 12.1867 72.3202 11.984L72.3522 11.04C72.3629 10.7413 72.2989 10.5013 72.1602 10.32C72.0322 10.1387 71.8349 10.048 71.5682 10.048C71.4296 10.048 71.2856 10.0747 71.1362 10.128C70.9869 10.1813 70.8696 10.2507 70.7842 10.336C70.7416 10.3787 70.7096 10.4373 70.6882 10.512C70.6776 10.576 70.6722 10.64 70.6722 10.704C70.6722 10.7573 70.6722 10.8267 70.6722 10.912C70.6829 10.9867 70.6882 11.056 70.6882 11.12C70.6882 11.184 70.6082 11.264 70.4482 11.36C70.2882 11.456 70.1069 11.5413 69.9042 11.616C69.7016 11.6907 69.5309 11.728 69.3922 11.728C69.3176 11.728 69.2589 11.7013 69.2162 11.648C69.1736 11.5947 69.1522 11.5307 69.1522 11.456C69.1522 11.2853 69.2056 11.1147 69.3122 10.944C69.4296 10.7627 69.6109 10.5707 69.8562 10.368C70.1229 10.144 70.4162 9.94667 70.7362 9.776C71.0562 9.59467 71.3656 9.45067 71.6642 9.344C71.9736 9.23733 72.2402 9.184 72.4642 9.184C72.9762 9.184 73.3869 9.35467 73.6962 9.696C74.0056 10.0267 74.1549 10.464 74.1442 11.008L74.0642 14.432C74.0536 14.6667 74.0962 14.864 74.1922 15.024C74.2989 15.184 74.4269 15.264 74.5762 15.264C74.8002 15.264 74.9816 15.2 75.1202 15.072C75.1629 15.0293 75.2002 15.008 75.2322 15.008C75.2856 15.008 75.3282 15.0293 75.3602 15.072C75.4029 15.104 75.4242 15.1467 75.4242 15.2C75.4242 15.3173 75.3389 15.4613 75.1682 15.632C74.9762 15.824 74.7682 15.968 74.5442 16.064C74.3309 16.1707 74.1176 16.224 73.9042 16.224C73.3389 16.224 72.8802 15.9307 72.5282 15.344H72.4802C72.1282 15.6533 71.8029 15.8773 71.5042 16.016C71.2162 16.1547 70.9069 16.224 70.5762 16.224ZM71.4562 15.264C71.6056 15.264 71.7336 15.2427 71.8402 15.2C71.9469 15.1467 72.0376 15.0773 72.1122 14.992C72.1549 14.9387 72.1869 14.8747 72.2082 14.8C72.2402 14.7253 72.2616 14.6187 72.2722 14.48L72.3042 13.456C72.3149 13.3493 72.3042 13.28 72.2722 13.248C72.2402 13.2053 72.2029 13.184 72.1602 13.184C72.1389 13.184 72.1069 13.1893 72.0642 13.2C72.0216 13.2 71.9736 13.216 71.9202 13.248C71.5256 13.408 71.2429 13.5787 71.0722 13.76C70.9016 13.9413 70.8162 14.176 70.8162 14.464C70.8162 14.752 70.8856 14.96 71.0242 15.088C71.1629 15.2053 71.3069 15.264 71.4562 15.264ZM81.3411 16.32C81.2558 16.32 81.2131 16.272 81.2131 16.176C81.2131 16.0587 81.2238 15.8933 81.2451 15.68C81.2771 15.4667 81.2931 15.296 81.2931 15.168C81.2931 15.136 81.2878 15.1093 81.2771 15.088C81.2771 15.056 81.2771 15.0347 81.2771 15.024C80.9465 15.3867 80.5571 15.68 80.1091 15.904C79.6718 16.128 79.2078 16.24 78.7171 16.24C78.3758 16.24 78.0665 16.1493 77.7891 15.968C77.5225 15.7867 77.3091 15.536 77.1491 15.216C76.9998 14.896 76.9251 14.5227 76.9251 14.096V11.024C76.9251 10.7787 76.8771 10.5867 76.7811 10.448C76.6851 10.2987 76.5145 10.1867 76.2691 10.112C76.2051 10.1013 76.1465 10.0747 76.0931 10.032C76.0505 9.98933 76.0291 9.92533 76.0291 9.84C76.0291 9.75467 76.0505 9.69067 76.0931 9.648C76.1465 9.60533 76.2051 9.57867 76.2691 9.568C76.6958 9.54667 77.0638 9.50933 77.3731 9.456C77.6825 9.392 78.0131 9.31733 78.3651 9.232C78.4078 9.21067 78.4505 9.19467 78.4931 9.184C78.5358 9.17333 78.5785 9.168 78.6211 9.168C78.7598 9.168 78.8238 9.24267 78.8131 9.392C78.7811 9.63733 78.7545 9.84533 78.7331 10.016C78.7118 10.176 78.7011 10.3787 78.7011 10.624V13.712C78.7011 13.968 78.7491 14.1973 78.8451 14.4C78.9411 14.6027 79.0745 14.7627 79.2451 14.88C79.4158 14.9973 79.6025 15.0613 79.8051 15.072C80.0078 15.072 80.1945 15.0507 80.3651 15.008C80.5465 14.9653 80.7225 14.8693 80.8931 14.72C80.9785 14.656 81.0745 14.5387 81.1811 14.368C81.2878 14.1867 81.3411 13.952 81.3411 13.664V10.976C81.3411 10.7733 81.2931 10.6133 81.1971 10.496C81.1118 10.368 80.9945 10.272 80.8451 10.208C80.7065 10.144 80.5625 10.112 80.4131 10.112C80.2958 10.1013 80.2051 10.0747 80.1411 10.032C80.0771 9.98933 80.0451 9.904 80.0451 9.776C80.0451 9.66933 80.0825 9.59467 80.1571 9.552C80.2318 9.50933 80.3171 9.488 80.4131 9.488C80.8825 9.456 81.2611 9.42933 81.5491 9.408C81.8371 9.38667 82.0771 9.36 82.2691 9.328C82.4718 9.296 82.6691 9.25333 82.8611 9.2C82.8931 9.18933 82.9251 9.184 82.9571 9.184C82.9998 9.17333 83.0318 9.168 83.0531 9.168C83.2025 9.168 83.2771 9.22667 83.2771 9.344C83.2771 9.376 83.2718 9.41333 83.2611 9.456C83.2611 9.488 83.2505 9.52533 83.2291 9.568C83.2185 9.6 83.2025 9.69067 83.1811 9.84C83.1705 9.98933 83.1545 10.144 83.1331 10.304C83.1225 10.464 83.1171 10.5867 83.1171 10.672V14.384C83.1171 14.64 83.1438 14.816 83.1971 14.912C83.2611 15.008 83.3305 15.056 83.4051 15.056C83.4691 15.056 83.5598 15.056 83.6771 15.056C83.8051 15.0453 83.8958 15.04 83.9491 15.04C84.0345 15.04 84.1038 15.0613 84.1571 15.104C84.2105 15.1467 84.2371 15.216 84.2371 15.312C84.2371 15.408 84.2158 15.4827 84.1731 15.536C84.1411 15.5787 84.0771 15.6053 83.9811 15.616C83.5011 15.6587 83.0745 15.744 82.7011 15.872C82.3278 15.9893 82.0025 16.1067 81.7251 16.224C81.6611 16.2453 81.5918 16.2667 81.5171 16.288C81.4531 16.3093 81.3945 16.32 81.3411 16.32ZM85.2926 16.048C85.2073 16.048 85.1326 16.032 85.0686 16C85.0046 15.968 84.9726 15.92 84.9726 15.856C84.9726 15.7707 85.0046 15.7067 85.0686 15.664C85.1433 15.6213 85.234 15.5787 85.3406 15.536C85.5006 15.4827 85.6446 15.424 85.7726 15.36C85.9113 15.296 85.9806 15.152 85.9806 14.928V7.12C85.9806 6.82133 85.9326 6.57067 85.8366 6.368C85.7513 6.15467 85.5753 6.02133 85.3086 5.968C85.202 5.94667 85.1486 5.86667 85.1486 5.728C85.1486 5.6 85.1966 5.52533 85.2926 5.504C85.5593 5.45067 85.8313 5.376 86.1086 5.28C86.3966 5.184 86.6633 5.088 86.9086 4.992C87.1646 4.896 87.378 4.82133 87.5486 4.768C87.6233 4.736 87.6766 4.72 87.7086 4.72C87.762 4.72 87.7993 4.74133 87.8206 4.784C87.842 4.816 87.8526 4.848 87.8526 4.88C87.8526 4.96533 87.8366 5.13067 87.8046 5.376C87.7726 5.61067 87.7566 5.93067 87.7566 6.336V14.912C87.7566 15.136 87.8206 15.28 87.9486 15.344C88.0766 15.408 88.2206 15.4667 88.3806 15.52C88.4873 15.5627 88.5726 15.6053 88.6366 15.648C88.7113 15.6907 88.7486 15.7547 88.7486 15.84C88.7486 15.904 88.7166 15.952 88.6526 15.984C88.5886 16.016 88.514 16.032 88.4286 16.032C88.226 16.032 88.0393 16.0213 87.8686 16C87.698 15.9893 87.5273 15.984 87.3566 15.984C87.1966 15.9733 87.0206 15.968 86.8286 15.968C86.6473 15.968 86.4766 15.9733 86.3166 15.984C86.1673 15.9947 86.0126 16.0053 85.8526 16.016C85.6926 16.0373 85.506 16.048 85.2926 16.048ZM92.5052 16.224C91.8652 16.224 91.3799 16.0533 91.0492 15.712C90.7186 15.3707 90.5532 14.8747 90.5532 14.224V10.528C90.5532 10.4427 90.5159 10.3787 90.4412 10.336C90.3772 10.2933 90.2439 10.2667 90.0412 10.256H89.8652C89.8012 10.256 89.7479 10.208 89.7052 10.112C89.6626 10.0053 89.6412 9.904 89.6412 9.808C89.6412 9.78667 89.6466 9.76 89.6572 9.728C89.6786 9.68533 89.7052 9.65867 89.7372 9.648C89.9826 9.54133 90.2332 9.39733 90.4892 9.216C90.7452 9.024 90.9852 8.832 91.2092 8.64C91.4332 8.43733 91.6199 8.26667 91.7692 8.128C91.8439 8.07467 91.9026 8.02667 91.9452 7.984C91.9986 7.94133 92.0572 7.92 92.1212 7.92C92.2066 7.92 92.2706 7.94133 92.3132 7.984C92.3666 8.016 92.3826 8.08533 92.3612 8.192L92.2652 9.072C92.2546 9.2 92.2812 9.28533 92.3452 9.328C92.4199 9.37067 92.5212 9.392 92.6492 9.392H94.5372C94.5692 9.392 94.6012 9.42933 94.6332 9.504C94.6652 9.57867 94.6812 9.65333 94.6812 9.728C94.6812 9.86667 94.6599 9.99467 94.6172 10.112C94.5852 10.2293 94.5426 10.288 94.4892 10.288H92.9692C92.7239 10.288 92.5532 10.3147 92.4572 10.368C92.3719 10.4213 92.3292 10.5333 92.3292 10.704V13.776C92.3292 14.2453 92.4199 14.6027 92.6012 14.848C92.7826 15.0827 93.0386 15.2 93.3692 15.2C93.6679 15.2 93.8919 15.1733 94.0412 15.12C94.2012 15.0667 94.3452 15.0027 94.4732 14.928C94.5052 14.9067 94.5319 14.896 94.5532 14.896C94.6066 14.896 94.6439 14.928 94.6652 14.992C94.6972 15.056 94.7132 15.1253 94.7132 15.2C94.7132 15.2533 94.6066 15.3653 94.3932 15.536C94.1906 15.7067 93.9186 15.8613 93.5772 16C93.2466 16.1493 92.8892 16.224 92.5052 16.224Z" fill="black"/>
</svg>
